<svg width="60" height="60" viewBox="0 0 60 60" fill="none" xmlns="http://www.w3.org/2000/svg">
<path d="M10.6504 27.5501V39.9751C10.6504 44.5251 10.6504 44.5251 14.9504 47.4251L26.7754 54.2501C28.5504 55.2751 31.4504 55.2751 33.2254 54.2501L45.0504 47.4251C49.3504 44.5251 49.3504 44.5251 49.3504 39.9751V27.5501C49.3504 23.0001 49.3504 23.0001 45.0504 20.1001L33.2254 13.2751C31.4504 12.2501 28.5504 12.2501 26.7754 13.2751L14.9504 20.1001C10.6504 23.0001 10.6504 23.0001 10.6504 27.5501Z" stroke="#F4F4F4" stroke-width="3" stroke-linecap="round" stroke-linejoin="round"/>
<path d="M43.75 19.075V12.5C43.75 7.5 41.25 5 36.25 5H23.75C18.75 5 16.25 7.5 16.25 12.5V18.9" stroke="#F4F4F4" stroke-width="3" stroke-linecap="round" stroke-linejoin="round"/>
<path d="M31.5754 27.4749L33.0004 29.6999C33.2254 30.0499 33.7254 30.3999 34.1004 30.4999L36.6504 31.1499C38.2254 31.5499 38.6504 32.8999 37.6254 34.1499L35.9504 36.1749C35.7004 36.4999 35.5004 37.0749 35.5254 37.4749L35.6754 40.0999C35.7754 41.7249 34.6254 42.5499 33.1254 41.9499L30.6754 40.9749C30.3004 40.8249 29.6754 40.8249 29.3004 40.9749L26.8504 41.9499C25.3504 42.5499 24.2004 41.6999 24.3004 40.0999L24.4504 37.4749C24.4754 37.0749 24.2754 36.4749 24.0254 36.1749L22.3504 34.1499C21.3254 32.8999 21.7504 31.5499 23.3254 31.1499L25.8754 30.4999C26.2754 30.3999 26.7754 30.0249 26.9754 29.6999L28.4004 27.4749C29.3004 26.1249 30.7004 26.1249 31.5754 27.4749Z" stroke="#F4F4F4" stroke-width="3" stroke-linecap="round" stroke-linejoin="round"/>
</svg>
