<svg width="18" height="12" viewBox="0 0 18 12" fill="none" xmlns="http://www.w3.org/2000/svg">
<path fill-rule="evenodd" clip-rule="evenodd" d="M18 6C18 6 14.625 0 9 0C3.375 0 0 6 0 6C0 6 3.375 12 9 12C14.625 12 18 6 18 6ZM1.31963 6C1.86359 6.80168 2.48923 7.54834 3.18712 8.22873C4.635 9.63491 6.615 10.9091 9 10.9091C11.385 10.9091 13.3639 9.63491 14.814 8.22873C15.5119 7.54834 16.1375 6.80168 16.6815 6C16.1375 5.19832 15.5119 4.45166 14.814 3.77127C13.3639 2.36509 11.3839 1.09091 9 1.09091C6.615 1.09091 4.63613 2.36509 3.186 3.77127C2.4881 4.45166 1.86245 5.19832 1.3185 6H1.31963Z" fill="white"/>
<path fill-rule="evenodd" clip-rule="evenodd" d="M9 3.27255C8.25408 3.27255 7.53871 3.55989 7.01126 4.07135C6.48382 4.58281 6.1875 5.2765 6.1875 5.99982C6.1875 6.72314 6.48382 7.41683 7.01126 7.92829C7.53871 8.43976 8.25408 8.72709 9 8.72709C9.74592 8.72709 10.4613 8.43976 10.9887 7.92829C11.5162 7.41683 11.8125 6.72314 11.8125 5.99982C11.8125 5.2765 11.5162 4.58281 10.9887 4.07135C10.4613 3.55989 9.74592 3.27255 9 3.27255ZM5.0625 5.99982C5.0625 4.98718 5.47734 4.01601 6.21577 3.29996C6.95419 2.58391 7.95571 2.18164 9 2.18164C10.0443 2.18164 11.0458 2.58391 11.7842 3.29996C12.5227 4.01601 12.9375 4.98718 12.9375 5.99982C12.9375 7.01247 12.5227 7.98364 11.7842 8.69968C11.0458 9.41573 10.0443 9.818 9 9.818C7.95571 9.818 6.95419 9.41573 6.21577 8.69968C5.47734 7.98364 5.0625 7.01247 5.0625 5.99982Z" fill="white"/>
</svg>
