<svg width="60" height="60" viewBox="0 0 60 60" fill="none" xmlns="http://www.w3.org/2000/svg">
<path d="M22.5 55H37.5C50 55 55 50 55 37.5V22.5C55 10 50 5 37.5 5H22.5C10 5 5 10 5 22.5V37.5C5 50 10 55 22.5 55Z" stroke="#F4F4F4" stroke-width="3" stroke-linecap="round" stroke-linejoin="round"/>
<path d="M35.8778 27.2753C35.6278 29.0503 34.5777 30.5503 33.1277 31.4503V36.4003C33.1277 38.1253 31.7277 39.5253 30.0027 39.5253C28.2777 39.5253 26.8777 38.1253 26.8777 36.4003V31.4503C25.4277 30.5503 24.3777 29.0503 24.1277 27.2753C24.0777 27.0003 24.0527 26.7003 24.0527 26.4003C24.0527 22.6003 27.6528 19.6503 31.6028 20.7003C33.6028 21.2253 35.2277 22.8503 35.7527 24.8503C35.9777 25.6753 36.0028 26.5003 35.8778 27.2753Z" stroke="#F4F4F4" stroke-width="3" stroke-miterlimit="10"/>
<path d="M55.0039 27.2754H35.8789" stroke="#F4F4F4" stroke-width="3" stroke-miterlimit="10"/>
<path d="M24.125 27.2749H5" stroke="#F4F4F4" stroke-width="3" stroke-miterlimit="10"/>
</svg>
